<svg width="86" height="36" viewBox="0 0 86 36" fill="none" xmlns="http://www.w3.org/2000/svg">
<path d="M19.3846 3.54041C16.0896 3.54041 14.0565 6.02921 14.0565 10.2707C14.0565 14.4771 16.0896 17.001 19.3846 17.001C22.6796 17.001 24.7128 14.5122 24.7128 10.2707C24.7128 6.02921 22.7147 3.54041 19.3846 3.54041ZM19.3846 16.2298C18.1227 16.2298 17.7371 14.8627 17.7371 10.2356C17.7371 5.60857 18.1227 4.24148 19.3846 4.24148C20.6465 4.24148 21.0321 5.64362 21.0321 10.2707C21.0321 14.8627 20.6465 16.2298 19.3846 16.2298ZM43.6767 22.5745C42.2746 22.5745 41.258 23.1003 40.6621 24.0117V19.3846H37.1217V27.9727C37.1217 32.6349 34.4576 34.8432 32.0389 34.8432C30.2512 34.8432 29.5151 33.6164 29.5151 29.4099C29.5151 25.2035 29.9708 23.3106 31.408 23.3106C32.3544 23.3106 33.1607 24.222 33.9669 26.3252H34.8432V23.2055C33.7916 22.7848 32.4946 22.5745 31.4781 22.5745C27.8676 22.5745 25.8345 25.1685 25.8345 29.4099C25.8345 33.6164 27.8676 36 31.3028 36C34.1422 36 36.1753 34.4927 37.1217 31.9338V35.6845H40.6621V26.15C40.6621 24.6777 41.4684 23.9416 42.3096 23.9416C43.1159 23.9416 43.3963 24.6076 43.3963 25.6241V35.7196H46.9367V26.2902C46.9367 23.6611 45.6397 22.5745 43.6767 22.5745ZM26.8861 0.350536V16.6855H30.4265V0.350536H26.8861ZM39.6456 0.350536V4.80234C39.3301 4.03116 38.5589 3.54041 37.332 3.54041C34.5628 3.54041 32.705 6.02921 32.705 10.2006C32.705 14.4771 34.3525 16.9659 37.1918 16.9659C38.5239 16.9659 39.4352 16.335 39.8559 15.038V16.6504H43.1509V0.350536H39.6456ZM37.8929 15.9494C36.7712 15.9494 36.3856 14.8277 36.3856 10.1655C36.3856 5.78384 36.7712 4.48686 37.963 4.48686C39.26 4.48686 39.7157 6.02921 39.7157 10.1655C39.7157 14.3369 39.1198 15.9494 37.8929 15.9494ZM58.4343 3.54041C56.8569 3.54041 55.7001 4.38169 55.2093 5.53846C54.7186 4.20643 53.7371 3.54041 52.335 3.54041C50.8277 3.54041 49.741 4.20643 49.2152 5.29309V3.85589H45.9202V16.6855H49.4255V7.11587C49.4255 5.64362 50.1266 4.9075 51.0029 4.9075C51.739 4.9075 52.0545 5.50341 52.0545 6.51996V16.6855H55.5949V7.11587C55.5949 5.64362 56.296 4.9075 57.1723 4.9075C57.9085 4.9075 58.224 5.50341 58.224 6.51996V16.6855H61.7644V7.25609C61.7644 4.62707 60.4323 3.54041 58.4343 3.54041ZM55.5248 28.1831L53.4917 26.9562C52.1246 26.15 51.6339 25.6592 51.6339 24.8179C51.6339 23.8715 52.2999 23.2756 53.4216 23.2756C54.7536 23.2756 55.7352 24.1519 56.3311 26.2902H57.2074V22.9951C56.0857 22.7498 54.8238 22.5394 53.702 22.5394C50.8627 22.5394 49.1451 23.9416 49.1451 26.2201C49.1451 27.7975 50.0214 28.8841 51.8092 29.9708L53.4917 30.9873C54.8939 31.8286 55.3846 32.4245 55.3846 33.371C55.3846 34.5979 54.6134 35.2288 53.2814 35.2288C51.6339 35.2288 50.6874 34.1772 50.0565 31.8637H49.1801V35.4742C50.4771 35.8247 51.8442 35.9649 52.9659 35.9649C56.1908 35.9649 58.0487 34.4576 58.0487 31.9338C58.0136 30.2162 57.1723 29.1646 55.5248 28.1831ZM69.0204 3.54041C67.6884 3.54041 66.111 3.78578 64.6388 4.24148V7.25609H65.5151C66.2512 5.36319 67.2327 4.31159 68.6349 4.31159C69.5112 4.31159 69.8617 4.73223 69.8617 5.71373V7.36125C69.8617 8.16748 69.6514 8.41285 68.74 8.72833L67.7936 9.04382C64.9893 9.99026 63.7274 11.2171 63.7274 13.4255C63.7274 15.7741 65.1295 17.001 67.1626 17.001C68.5998 17.001 69.8267 16.37 70.2123 15.1431V16.6855H73.4372V7.36125C73.4021 4.83739 71.8948 3.54041 69.0204 3.54041ZM69.8617 13.2502C69.8617 14.9328 69.3009 15.704 68.4245 15.704C67.5833 15.704 67.3028 15.038 67.3028 13.3204V12.9698C67.3028 10.9718 67.7235 10.1655 68.8802 9.56962L69.8617 9.07887V13.2502ZM82.6212 3.54041C81.0789 3.54041 79.9572 4.20643 79.3963 5.29309V3.85589H76.0662V16.6855H79.6066V7.08082C79.6066 5.60857 80.4129 4.87244 81.2541 4.87244C82.0604 4.87244 82.3408 5.53846 82.3408 6.55501V16.6504H85.8812V7.25609C85.8812 4.62707 84.5842 3.54041 82.6212 3.54041ZM12.5492 30.2162C12.5492 33.5112 10.1655 35.7196 6.34469 35.7196H0.736125V29.8656H1.57741C2.34859 33.3359 3.78578 34.8783 6.20448 34.8783C8.16748 34.8783 9.21908 33.8267 9.21908 32.1091C9.21908 30.2863 8.09737 29.445 6.44985 28.4985L3.96105 27.0263C1.85784 25.7994 0.666018 24.2921 0.666018 22.1889C0.666018 19.8403 2.03311 18.333 4.24148 17.702C1.12171 16.8608 0 14.0214 0 8.97371C0 3.22493 2.38364 0 7.25609 0H11.778V4.83739H10.9017C9.85005 1.75268 8.93866 0.806232 7.29114 0.806232C4.87244 0.806232 4.20643 3.4002 4.20643 9.11392C4.20643 15.704 4.80234 17.1762 6.59007 17.1762C7.95716 17.1762 8.62317 16.2999 8.62317 14.2317V11.7079C8.62317 10.1655 8.13242 9.60467 6.51996 9.3593V8.55307H11.9182V22.3291H11.112C9.8851 18.8588 8.30769 18.0876 6.55501 18.0876C4.83739 18.0876 3.78578 18.8939 3.78578 20.4713C3.78578 21.9435 4.66212 22.6446 6.30964 23.6261L9.00876 25.2386C11.147 26.5706 12.5492 27.7975 12.5492 30.2162ZM19.3496 22.5745C18.0175 22.5745 16.4401 22.8199 14.9679 23.2756V26.2902H15.8442C16.5803 24.3973 17.5618 23.3457 18.964 23.3457C19.8403 23.3457 20.1908 23.7663 20.1908 24.7478V26.3603C20.1908 27.1665 19.9805 27.4119 19.0691 27.7274L18.1227 28.0428C15.3184 28.9893 14.0565 30.2162 14.0565 32.4245C14.0565 34.7731 15.4586 36 17.4917 36C18.9289 36 20.1558 35.369 20.5414 34.1422V35.6845H23.7313V26.4304C23.7313 23.8715 22.1889 22.5745 19.3496 22.5745ZM20.1908 32.2843C20.1908 33.9669 19.63 34.7381 18.7537 34.7381C17.9124 34.7381 17.6319 34.0721 17.6319 32.3544V32.0039C17.6319 30.0058 18.0526 29.1996 19.2093 28.6037L20.1908 28.1129V32.2843Z" fill="white"/>
</svg>
